<svg version="1.1" xmlns="http://www.w3.org/2000/svg" xmlns:xlink="http://www.w3.org/1999/xlink" x="0px" y="0px" viewBox="0 0 1000 1000" enable-background="new 0 0 1000 1000" xml:space="preserve">
<metadata> no photo </metadata>
<g><path d="M745.2,76.5C510.9-58.4,211.2,21.8,75.8,255.7c-2.6,4.5-5.2,9.1-7.6,13.7l34.1,19.9c0-0.1,0.1-0.1,0.1-0.2l779.5,448.9c-58.3,93.1-150.8,165.3-265.4,196c-240.3,64.3-487.2-77.9-551.5-317.6C40.3,524.8,46,432.1,75.8,349c-0.2,0-0.3,0-0.5,0.1c2.3-4.3,3-9.3,1.6-14.3c-2.8-10.5-13.7-16.8-24.2-14c-7.5,2-12.8,8.1-14.3,15.3c-78.3,218.2,8.2,467.6,216.4,587.5c234.3,134.9,534,54.7,669.3-179.2c4-7,7.9-14,11.5-21.1L899.5,703l0.1-0.2L122.4,255.2c58.5-89.9,149.3-159.4,261.2-189.4c240.3-64.3,487.2,77.9,551.5,317.6c23.9,89,19.2,178.9-8.4,260.1c-5.1,7.9-4.2,18.5,2.7,25.4c7.9,7.9,20.7,7.9,28.7,0c3.2-3.2,5.1-7.2,5.7-11.4C1038.1,440.9,951.3,195.2,745.2,76.5z"/><path d="M745.2,76.5C510.9-58.4,211.2,21.8,75.8,255.7c-2.6,4.5-5.2,9.1-7.6,13.7l34.1,19.9c0-0.1,0.1-0.1,0.1-0.2l779.5,448.9c-58.3,93.1-150.8,165.3-265.4,196c-240.3,64.3-487.2-77.9-551.5-317.6C40.3,524.8,46,432.1,75.8,349c-0.2,0-0.3,0-0.5,0.1c2.3-4.3,3-9.3,1.6-14.3c-2.8-10.5-13.7-16.8-24.2-14c-7.5,2-12.8,8.1-14.3,15.3c-78.3,218.2,8.2,467.6,216.4,587.5c234.3,134.9,534,54.7,669.3-179.2c4-7,7.9-14,11.5-21.1L899.5,703l0.1-0.2L122.4,255.2c58.5-89.9,149.3-159.4,261.2-189.4c240.3-64.3,487.2,77.9,551.5,317.6c23.9,89,19.2,178.9-8.4,260.1c-5.1,7.9-4.2,18.5,2.7,25.4c7.9,7.9,20.7,7.9,28.7,0c3.2-3.2,5.1-7.2,5.7-11.4C1038.1,440.9,951.3,195.2,745.2,76.5z"/></g>
</svg>
